<svg width="16" height="15" viewBox="0 0 16 15" fill="none" xmlns="http://www.w3.org/2000/svg">
<path fill-rule="evenodd" clip-rule="evenodd" d="M5.00016 0.333008C5.36835 0.333008 5.66683 0.631485 5.66683 0.999674V1.33302L10.3335 1.33303V0.999674C10.3335 0.631485 10.632 0.333008 11.0002 0.333008C11.3684 0.333008 11.6668 0.631484 11.6668 0.999674V1.33303L12.5002 1.33303C13.9729 1.33303 15.1668 2.52694 15.1668 3.9997V11.9997C15.1668 13.4724 13.9729 14.6663 12.5002 14.6663L3.50016 14.6663C2.0274 14.6663 0.833496 13.4724 0.833496 11.9997L0.833496 5.4998L0.833496 3.99968C0.833496 2.52692 2.02741 1.33301 3.50017 1.33301L4.3335 1.33301V0.999674C4.3335 0.631485 4.63197 0.333008 5.00016 0.333008ZM4.3335 2.66635L3.50017 2.66634C2.76378 2.66634 2.16683 3.2633 2.16683 3.99968V4.83301H13.8335V3.9997C13.8335 3.26332 13.2365 2.66636 12.5002 2.66636L11.6668 2.66636V2.99967C11.6668 3.36786 11.3684 3.66634 11.0002 3.66634C10.632 3.66634 10.3335 3.36786 10.3335 2.99967V2.66636L5.66683 2.66635V2.99967C5.66683 3.36786 5.36835 3.66634 5.00016 3.66634C4.63197 3.66634 4.3335 3.36786 4.3335 2.99967V2.66635ZM13.8335 6.16634H2.16683L2.16683 11.9997C2.16683 12.7361 2.76378 13.333 3.50016 13.333L12.5002 13.333C13.2365 13.333 13.8335 12.7361 13.8335 11.9997V6.16634Z" fill="#787A80"/>
</svg>
