<svg width="16" height="15" viewBox="0 0 16 15" fill="none" xmlns="http://www.w3.org/2000/svg">
<path d="M8.6665 3.83366C8.6665 3.46547 8.36803 3.16699 7.99984 3.16699C7.63165 3.16699 7.33317 3.46547 7.33317 3.83366V7.50033C7.33317 7.67714 7.40341 7.84671 7.52843 7.97173L9.52843 9.97173C9.78878 10.2321 10.2109 10.2321 10.4712 9.97173C10.7316 9.71138 10.7316 9.28927 10.4712 9.02892L8.6665 7.22418V3.83366Z" fill="#787A80"/>
<path fill-rule="evenodd" clip-rule="evenodd" d="M7.99984 0.166992C3.94975 0.166992 0.666504 3.45024 0.666504 7.50033C0.666504 11.5504 3.94975 14.8337 7.99984 14.8337C12.0499 14.8337 15.3332 11.5504 15.3332 7.50033C15.3332 3.45024 12.0499 0.166992 7.99984 0.166992ZM1.99984 7.50033C1.99984 4.18662 4.68613 1.50033 7.99984 1.50033C11.3135 1.50033 13.9998 4.18662 13.9998 7.50033C13.9998 10.814 11.3135 13.5003 7.99984 13.5003C4.68613 13.5003 1.99984 10.814 1.99984 7.50033Z" fill="#787A80"/>
</svg>
